<svg
          width="360"
          height="231"
          fill="none"
          xmlns="http://www.w3.org/2000/svg"
        >
          <g clipPath="url(#clip0)">
            <path
              d="M26.8895 6.27637H0v6.68003h26.8895V6.27637zM56.346 80.0507h11.5301L46.5412 6.4024H34.969l21.377 73.6483z"
              fill="#5044FF"
            />
            <path
              d="M105.875 80.6809v-9.1588H65.9404v9.1588h39.9346zM111.64 43.2055c0 14.7045 3.871 26.51 12.498 36.8452h11.278c-6.186-7.3102-11.11-22.897-11.11-36.8872 0-13.9902 4.924-29.5349 11.11-36.7611h-11.278c-8.585 10.2091-12.498 22.0147-12.498 36.8031zM177.652 0l-10.773 3.52772c2.586 5.33461 7.326 17.81068 8.963 23.31738l10.859-3.7858C185.064 17.4665 179.807 4.21606 177.652 0zm39.385 6.88336L204.11 3.18355c-1.465 13.16445-6.809 27.96365-13.272 36.13765-8.791 11.0994-22.235 18.8432-34.042 22.1988l9.653 9.6367c12.323-4.6462 24.82-13.3365 33.869-25.2103 7.153-9.3785 12.065-23.0592 14.478-32.4378.517-1.8929 1.293-4.47419 2.241-6.62524zm-63.343-1.54875l-11.031 3.78584c2.499 4.64625 8.187 18.75715 9.91 24.34985l11.118-4.0439c-1.982-5.8509-7.412-18.6711-9.997-24.09179zM248.318 43.2055c0-14.7044-3.871-26.468-12.456-36.8031h-11.32c6.186 7.3102 11.11 22.8969 11.11 36.8451 0 14.0323-4.924 29.577-11.11 36.8032h11.32c8.542-10.2511 12.456-22.0147 12.456-36.8452zM293.975 80.6809v-9.1588h-39.934v9.1588h39.934z"
              fill="#5044FF"
            />
            <path
              d="M303.444 80.0507l21.545-73.6483h-11.32l-21.587 73.6483h11.362zM360 6.27637h-26.89v6.68003H360V6.27637z"
              fill="#5044FF"
            />
            <path
              d="M94.4329 118.429H71.7917l-36.5743 69.903v19.506h53.0062v20.114h21.5054v-20.114h14.236V189.85h-14.236v-29.297H88.6779v29.904H57.1771v-.607l37.2558-71.421zM180.303 230.38c27.487 0 44.904-22.086 44.904-57.456 0-35.369-17.568-57-44.904-57-27.336 0-44.98 21.707-44.98 57.076 0 35.445 17.417 57.38 44.98 57.38zm0-18.367c-13.024 0-21.733-14.118-21.733-39.013 0-24.667 8.86-38.708 21.733-38.708 12.949 0 21.657 13.965 21.657 38.708 0 24.971-8.633 39.013-21.657 39.013zM295.251 118.429h-22.642l-36.574 69.903v19.506h53.006v20.114h21.506v-20.114h14.236V189.85h-14.236v-29.297h-21.051v29.904h-31.501v-.607l37.256-71.421z"
              fill="#85898E"
            />
          </g>
          <defs>
            <clipPath id="clip0">
              <path fill="#fff" d="M0 0h360v230.38H0z" />
            </clipPath>
          </defs>
        </svg>