<svg width="24" height="28" viewBox="0 0 24 28" fill="none" xmlns="http://www.w3.org/2000/svg">
<path d="M22.2857 1.71429H1.70893C0.766071 1.71429 0 2.49108 0 3.44465V23.9839C0 24.9375 0.766071 25.7143 1.70893 25.7143H22.2857C23.2286 25.7143 24 24.9375 24 23.9839V3.44465C24 2.49108 23.2286 1.71429 22.2857 1.71429ZM7.25357 22.2857H3.69643V10.8322H7.25893V22.2857H7.25357ZM5.475 9.26787C4.33393 9.26787 3.4125 8.34108 3.4125 7.20537C3.4125 6.06965 4.33393 5.14287 5.475 5.14287C6.61071 5.14287 7.5375 6.06965 7.5375 7.20537C7.5375 8.34644 6.61607 9.26787 5.475 9.26787V9.26787ZM20.5875 22.2857H17.0304V16.7143C17.0304 15.3857 17.0036 13.6768 15.1821 13.6768C13.3286 13.6768 13.0446 15.1232 13.0446 16.6179V22.2857H9.4875V10.8322H12.9V12.3964H12.9482C13.425 11.4964 14.5875 10.5482 16.3179 10.5482C19.9179 10.5482 20.5875 12.9214 20.5875 16.0072V22.2857V22.2857Z" fill="#F9F9F9"/>
</svg>
