<svg width="32" height="32" viewBox="0 0 32 32" fill="none" xmlns="http://www.w3.org/2000/svg">
<path d="M13.44 0H1.98399V32H13.44C23.424 32 30.016 25.28 30.016 16C30.016 6.784 23.36 0 13.44 0ZM17.792 25.344C16.96 26.432 15.488 27.264 13.056 27.52C13.056 27.52 13.056 27.52 12.992 27.52C12.544 27.584 12.096 27.584 11.648 27.584C9.85599 27.584 8.19199 27.264 6.78399 26.752V16.96C8.12799 17.408 9.59999 17.728 10.944 18.048C14.976 19.008 18.624 19.904 18.624 22.976C18.624 23.808 18.368 24.576 17.792 25.344ZM24.896 17.92C24.704 19.52 24.192 21.056 23.424 22.336C23.36 20.48 22.784 19.008 21.76 17.92C19.648 15.424 15.68 14.464 12.16 13.568C10.048 13.056 8.06399 12.608 6.71999 11.84V4.16H13.44C16.768 4.16 19.392 5.184 21.376 6.848C21.568 7.04 21.824 7.232 22.016 7.424C24.064 9.536 25.152 12.544 25.152 15.936C25.088 16.704 25.024 17.344 24.896 17.92Z" fill="#F9F9F9"/>
</svg>
